<?xml version="1.0" encoding="utf-8"?>
<!-- Generator: Adobe Illustrator 24.0.2, SVG Export Plug-In . SVG Version: 6.00 Build 0)  -->
<svg version="1.1" id="Layer_1" xmlns="http://www.w3.org/2000/svg" xmlns:xlink="http://www.w3.org/1999/xlink" x="0px" y="0px"
	 width="596.4px" height="434.1px" viewBox="0 0 596.4 434.1" style="enable-background:new 0 0 596.4 434.1;" xml:space="preserve"
	>
<style type="text/css">
	.st0{opacity:0.18;fill:#1D2741;enable-background:new    ;}
	.st1{opacity:0.18;fill:#5075D0;enable-background:new    ;}
	.st2{fill:#5075D0;}
	.st3{fill:url(#SVGID_1_);}
	.st4{fill:url(#SVGID_2_);}
	.st5{fill:url(#SVGID_3_);}
	.st6{fill:url(#SVGID_4_);}
	.st7{fill:#FFFFFF;}
	.st8{opacity:9.000000e-02;fill:url(#SVGID_5_);enable-background:new    ;}
	.st9{fill:url(#SVGID_6_);}
	.st10{fill:url(#SVGID_7_);}
	.st11{fill:url(#SVGID_8_);}
	.st12{fill:url(#SVGID_9_);}
	.st13{fill:url(#SVGID_10_);}
	.st14{fill:url(#SVGID_11_);}
	.st15{fill:url(#SVGID_12_);}
	.st16{fill:url(#SVGID_13_);}
	.st17{fill:url(#SVGID_14_);}
	.st18{fill:url(#SVGID_15_);}
	.st19{fill:url(#SVGID_16_);}
	.st20{fill:url(#SVGID_17_);}
	.st21{fill:#3F3D56;}
	.st22{fill:url(#SVGID_18_);}
	.st23{fill:url(#SVGID_19_);}
</style>
<title>analyze_on_screen</title>
<path class="st0" d="M412.1,427.7h69.2c1.6,0,2.8,1.3,2.8,2.8v0.7c0,1.6-1.3,2.8-2.8,2.8h-69.2c-1.6,0-2.8-1.3-2.8-2.8v-0.7
	C409.3,429,410.6,427.7,412.1,427.7z"/>
<path class="st1" d="M278.2,3.9c-22.9,7.1-43,20.7-62.7,34.3c-52.2,36.4-103,74.7-152.4,114.9c-16.9,13.8-33.9,28-45.6,46.4
	C-3.1,232.3-4.2,274.9,7.4,311.9s34.3,69.6,59,99.6c5.3,6.5,11,13.1,18.6,16.7c7.6,3.6,16.5,3.8,24.9,3.5
	c48.4-1.5,95.7-14,143.7-19.7c74.5-8.9,149.9-1.5,225,0.7c28.6,0.8,59.1,0.4,83.2-15.1c24.1-15.4,37.9-45.6,33.9-73.9
	c-3.5-24.7-19-46.2-24.8-70.4c-7.6-31.7,2-65.2-2.3-97.5C562.3,108.8,526.6,69.8,485,47c-34.2-18.7-73-29-111.2-36
	C342.2,5.3,310.1-6,278.2,3.9z"/>
<rect x="214.8" y="293.6" class="st2" width="127.7" height="99.3"/>
<linearGradient id="SVGID_1_" gradientUnits="userSpaceOnUse" x1="277.8223" y1="-34.1968" x2="279.3031" y2="-139.7982" gradientTransform="matrix(1 0 0 -1 0 253)">
	<stop  offset="1.000000e-02" style="stop-color:#000000"/>
	<stop  offset="0.97" style="stop-color:#3F3D56;stop-opacity:0"/>
</linearGradient>
<rect x="214.8" y="293.6" class="st3" width="127.7" height="99.3"/>
<path class="st2" d="M543.5,67.6v253.5c0,19.2-15.6,34.8-34.8,34.8H69.8c-19.2,0-34.7-15.6-34.8-34.8V67.6
	c0-19.2,15.6-34.8,34.8-34.8h0h439C527.9,32.9,543.5,48.4,543.5,67.6C543.5,67.6,543.5,67.6,543.5,67.6L543.5,67.6L543.5,67.6z"/>
<linearGradient id="SVGID_2_" gradientUnits="userSpaceOnUse" x1="301.8256" y1="-53.096" x2="281.1532" y2="317.6067" gradientTransform="matrix(1 0 0 -1 -3.2 254.27)">
	<stop  offset="3.000000e-02" style="stop-color:#FFFFFF;stop-opacity:0"/>
	<stop  offset="1" style="stop-color:#FFFFFF"/>
</linearGradient>
<path class="st4" d="M543.5,67.6v253.5c0,19.2-15.6,34.8-34.8,34.8H69.8c-7.6,0-15.1-2.5-21.2-7.2c-4.7-6.1-7.2-13.5-7.2-21.2V74.1
	c0-19.2,15.6-34.8,34.8-34.8l0,0h439c7.6,0,15.1,2.5,21.2,7.2C541,52.6,543.5,60,543.5,67.6z"/>
<linearGradient id="SVGID_3_" gradientUnits="userSpaceOnUse" x1="651.7031" y1="578.9893" x2="232.4123" y2="-164.1595" gradientTransform="matrix(1 0 0 -1 -3.2 254.27)">
	<stop  offset="1.000000e-02" style="stop-color:#000000"/>
	<stop  offset="0.97" style="stop-color:#3F3D56;stop-opacity:0"/>
</linearGradient>
<path class="st5" d="M543.5,293.6v27.5c0,19.2-15.6,34.8-34.8,34.8H69.8c-19.2,0-34.8-15.6-34.8-34.7l0,0l0,0v-27.5H543.5z"/>
<linearGradient id="SVGID_4_" gradientUnits="userSpaceOnUse" x1="584.8325" y1="391.1055" x2="375.3439" y2="398.502" gradientTransform="matrix(1 0 0 1 0 -77)">
	<stop  offset="1.000000e-02" style="stop-color:#000000"/>
	<stop  offset="0.97" style="stop-color:#3F3D56;stop-opacity:0"/>
</linearGradient>
<path class="st6" d="M476.4,312.4c0.1,9.5-1,18.9-3.4,28.1c-1.2,4.7-2.9,9.5-5.9,13.3c-0.6,0.8-1.3,1.5-2.1,2.2h-49.8
	c2-8.8,4.8-19.7,3.9-21c-4.5-5.9-6.2-13.4-7.8-20.7c-1.3-6.1-2.6-12.3-1.7-18.5c0.1-0.7,0.2-1.5,0.4-2.1c2.1-9.7,18-11.8,24.9-11.9
	l5.8,11.9c0,5.7,24.7-15.2,29-10.6c2.5,2.6,4,6.5,5,10.6C476.2,300,476.4,307.2,476.4,312.4z"/>
<path class="st7" d="M425.2,305.2l-7.8-16.7c5.3-3.4,11.2-5.7,17.5-6.7c0.6-0.2,1.2-0.1,1.8,0.2c0.4,0.3,0.6,0.7,0.8,1.1
	c3.2,6.2,6.4,12.5,9,19c1.2,3,2.3,6.4,1.3,9.5c-1.2,3.8-5,6.1-8.5,8C428,325.4,428.5,312.4,425.2,305.2z"/>
<linearGradient id="SVGID_5_" gradientUnits="userSpaceOnUse" x1="429.7435" y1="-55.0999" x2="448.0525" y2="-55.0999" gradientTransform="matrix(1 0 0 -1 -3.2 254.27)">
	<stop  offset="0" style="stop-color:#183866"/>
	<stop  offset="1" style="stop-color:#1A7FC1"/>
</linearGradient>
<path class="st8" d="M441.4,300.6c-2.3,3.8-3.8,8.1-6,12.1c-0.4,0.7-0.9,1.4-1.6,1.3c-0.3-0.1-0.6-0.2-0.9-0.4
	c-2.3-1.6-4.4-3.3-6.4-5.3c0,4.3,2.6,8.1,5.1,11.6c0.2,0.3,0.4,0.5,0.6,0.6c0.2,0.1,0.5,0.1,0.7,0.1c2.9,0,5.8-0.8,8.3-2.2
	c0.2-0.1,0.3-0.2,0.4-0.3c0.1-0.2,0.1-0.4,0.1-0.5c-0.1-4.2-0.5-8.6,1.2-12.4c0.5-1.2,1.2-2.3,1.6-3.5c0.3-0.8,0.8-3.4-0.5-3.7
	C443,297.8,441.8,299.9,441.4,300.6z"/>
<path class="st2" d="M387.3,395.5c0,1.1-0.2,2.2-0.6,3.3c-1.3,3.5-4.7,5.8-8.5,5.8H179.1c-3.8,0-7.1-2.3-8.5-5.8
	c-0.4-1-0.6-2.2-0.6-3.3c0-5,4.1-9.1,9.1-9.1l0,0h199.1C383.2,386.4,387.3,390.5,387.3,395.5L387.3,395.5L387.3,395.5z"/>
<linearGradient id="SVGID_6_" gradientUnits="userSpaceOnUse" x1="282.7732" y1="-110.9114" x2="281.7228" y2="-145.6693" gradientTransform="matrix(1 0 0 -1 -3.2 254.27)">
	<stop  offset="1.000000e-02" style="stop-color:#000000"/>
	<stop  offset="0.97" style="stop-color:#3F3D56;stop-opacity:0"/>
</linearGradient>
<path class="st9" d="M387.3,395.5c0,1.1-0.2,2.2-0.6,3.3c-1.3,3.5-4.7,5.8-8.5,5.8H179.1c-3.8,0-7.1-2.3-8.5-5.8
	c-0.4-1-0.6-2.2-0.6-3.3c0-5,4.1-9.1,9.1-9.1l0,0h199.1C383.2,386.4,387.3,390.5,387.3,395.5L387.3,395.5L387.3,395.5z"/>
<path class="st2" d="M386.7,398.8c-1.3,3.5-4.7,5.8-8.5,5.8H179.1c-3.8,0-7.1-2.3-8.5-5.8c0.5-1.2,1.2-2.3,2.1-3.2
	c1.7-1.7,4-2.7,6.4-2.7h199.1C382,392.9,385.3,395.3,386.7,398.8z"/>
<linearGradient id="SVGID_7_" gradientUnits="userSpaceOnUse" x1="190.9897" y1="84.4618" x2="0.1238" y2="80.0778" gradientTransform="matrix(1 0 0 -1 -3.2 254.27)">
	<stop  offset="3.000000e-02" style="stop-color:#FFFFFF;stop-opacity:0"/>
	<stop  offset="1" style="stop-color:#FFFFFF"/>
</linearGradient>
<path class="st10" d="M111.7,170.7c0,21.2,16.6,38.6,37.7,39.6v19.8c-32.8-1-58.5-28.4-57.5-61.2c1-31.3,26.2-56.5,57.5-57.5v19.8
	C128.3,132.1,111.7,149.5,111.7,170.7z"/>
<linearGradient id="SVGID_8_" gradientUnits="userSpaceOnUse" x1="236.871" y1="157.8015" x2="208.8093" y2="128.2591" gradientTransform="matrix(1 0 0 -1 -3.2 254.27)">
	<stop  offset="3.000000e-02" style="stop-color:#FFFFFF;stop-opacity:0"/>
	<stop  offset="1" style="stop-color:#FFFFFF"/>
</linearGradient>
<path class="st11" d="M210.7,170.7c0,17.6-7.8,34.3-21.4,45.6l-12.7-15.1c16.9-14,19.2-39,5.2-55.8c-7.5-9.1-18.7-14.3-30.5-14.3
	c-0.6,0-1.3,0-1.9,0.1v-19.7h1.9C184.1,111.4,210.7,137.9,210.7,170.7z"/>
<linearGradient id="SVGID_9_" gradientUnits="userSpaceOnUse" x1="143.8393" y1="104.1285" x2="188.8824" y2="-10.3283" gradientTransform="matrix(1 0 0 -1 -3.2 254.27)">
	<stop  offset="3.000000e-02" style="stop-color:#FFFFFF;stop-opacity:0"/>
	<stop  offset="1" style="stop-color:#FFFFFF"/>
</linearGradient>
<path class="st12" d="M189.4,216.3c-10.7,8.9-24.1,13.8-38,13.8c-0.6,0-1.3,0-1.9,0v-19.8c0.6,0,1.3,0,1.9,0
	c9.2,0,18.2-3.2,25.3-9.1L189.4,216.3z"/>
<linearGradient id="SVGID_10_" gradientUnits="userSpaceOnUse" x1="332.3652" y1="175.4158" x2="400.4659" y2="20.0008" gradientTransform="matrix(1 0 0 -1 0 253)">
	<stop  offset="0" style="stop-color:#FFFFFF;stop-opacity:0"/>
	<stop  offset="1" style="stop-color:#FFFFFF"/>
</linearGradient>
<rect x="255.5" y="186" class="st13" width="249.5" height="1.5"/>
<path class="st2" d="M252.7,133.9c0,0,47.5-7.1,59.5-28.4c12-21.3,36.6-26.2,56.2,14.2s51.3,44.2,62.7,30.5
	c11.4-13.6,26.2-62.7,46.4-63.8c20.2-1.1,27.5,38.2,27.5,38.2v49.6H255.5L252.7,133.9z"/>
<linearGradient id="SVGID_11_" gradientUnits="userSpaceOnUse" x1="293.3387" y1="187.1234" x2="295.5489" y2="8.4173" gradientTransform="matrix(1 0 0 -1 0 253)">
	<stop  offset="3.000000e-02" style="stop-color:#FFFFFF;stop-opacity:0"/>
	<stop  offset="1" style="stop-color:#FFFFFF"/>
</linearGradient>
<rect x="257.3" y="205.7" class="st14" width="75.7" height="5.5"/>
<linearGradient id="SVGID_12_" gradientUnits="userSpaceOnUse" x1="294.6376" y1="65.9046" x2="296.8551" y2="-112.8015" gradientTransform="matrix(1 0 0 -1 0 253)">
	<stop  offset="3.000000e-02" style="stop-color:#FFFFFF;stop-opacity:0"/>
	<stop  offset="0.45" style="stop-color:#FFFFFF;stop-opacity:0.45"/>
	<stop  offset="1" style="stop-color:#FFFFFF"/>
</linearGradient>
<rect x="257.3" y="221.8" class="st15" width="75.7" height="5.5"/>
<linearGradient id="SVGID_13_" gradientUnits="userSpaceOnUse" x1="294.4382" y1="65.9046" x2="296.6557" y2="-112.8015" gradientTransform="matrix(1 0 0 -1 0 253)">
	<stop  offset="3.000000e-02" style="stop-color:#FFFFFF;stop-opacity:0"/>
	<stop  offset="1" style="stop-color:#FFFFFF"/>
</linearGradient>
<rect x="257.3" y="237.8" class="st16" width="75.7" height="5.5"/>
<linearGradient id="SVGID_14_" gradientUnits="userSpaceOnUse" x1="372.0358" y1="349.4985" x2="372.2474" y2="270.427" gradientTransform="matrix(1 0 0 1 0 -77)">
	<stop  offset="3.000000e-02" style="stop-color:#FFFFFF;stop-opacity:0"/>
	<stop  offset="0.45" style="stop-color:#FFFFFF;stop-opacity:0.45"/>
	<stop  offset="1" style="stop-color:#FFFFFF"/>
</linearGradient>
<rect x="367.5" y="205.7" class="st17" width="9.5" height="5.5"/>
<linearGradient id="SVGID_15_" gradientUnits="userSpaceOnUse" x1="372.1117" y1="338.4985" x2="372.3159" y2="259.4269" gradientTransform="matrix(1 0 0 1 0 -77)">
	<stop  offset="3.000000e-02" style="stop-color:#FFFFFF;stop-opacity:0"/>
	<stop  offset="0.45" style="stop-color:#FFFFFF;stop-opacity:0.45"/>
	<stop  offset="1" style="stop-color:#FFFFFF"/>
</linearGradient>
<rect x="367.5" y="221.8" class="st18" width="9.5" height="5.5"/>
<linearGradient id="SVGID_16_" gradientUnits="userSpaceOnUse" x1="372.1532" y1="338.5058" x2="372.3574" y2="259.4269" gradientTransform="matrix(1 0 0 1 0 -77)">
	<stop  offset="3.000000e-02" style="stop-color:#FFFFFF;stop-opacity:0"/>
	<stop  offset="0.45" style="stop-color:#FFFFFF;stop-opacity:0.45"/>
	<stop  offset="1" style="stop-color:#FFFFFF"/>
</linearGradient>
<rect x="367.5" y="237.8" class="st19" width="9.5" height="5.5"/>
<linearGradient id="SVGID_17_" gradientUnits="userSpaceOnUse" x1="460.4198" y1="-12.305" x2="487.2937" y2="-12.305" gradientTransform="matrix(1 0 0 -1 -3.2 254.27)">
	<stop  offset="0" style="stop-color:#ECC4D7"/>
	<stop  offset="0.16" style="stop-color:#EDCBD5"/>
	<stop  offset="0.42" style="stop-color:#EFD4D1"/>
	<stop  offset="0.7" style="stop-color:#F2EAC9"/>
</linearGradient>
<path class="st20" d="M457.3,265.1c0,0,9.2-17.5,15.7-16.2c6.4,1.3,12.8,8,10.8,13.1c-2.1,5.1-12.7,14.6-13,19.3
	c-0.3,4.6-8,2.6-8,2.6l-1.3-9.8C461.4,274.1,456.7,270,457.3,265.1z"/>
<path class="st21" d="M473.8,244.8c1.9-0.6,4-0.3,5.9,0.1s4,1.1,5.4,2.6c2,2.1,2.1,5.3,3.3,7.9c1,2.3,2.8,4.2,3.3,6.7
	c0.4,2.1,0,4.3-1.1,6.1c-1.1,1.8-2.7,3.3-4.6,4.3c-1.6,0.9-3.4,1.6-5,2.7c-1.6,1-2.8,2.3-4.3,3.4c-1.4,1.2-3.2,1.8-5.1,1.7
	c-0.7,0-1.4-0.3-1.9-0.8c-1-0.9-0.9-2.5-0.8-3.9c0.1-1.6,0.3-3.3,0.4-5c1,0.1,2-0.1,3-0.4c1-0.3,1.7-1.1,1.9-2.1
	c0.2-1.5-1.3-2.8-2.8-2.9s-2.9,0.5-4.3,1.1c-0.6-1.2,0.3-2.5,1.1-3.5c1.2-1.4,2.5-2.7,3.8-4c0.5-0.4,0.9-0.8,1.1-1.4
	c0.4-1.3-1-2.5-1.5-3.5c-0.4-0.9-0.8-1.8-1-2.8C469.9,248.2,470.8,245.8,473.8,244.8z"/>
<path class="st2" d="M481.4,336.7c-0.4,2.4-0.8,4.9-2,7c-3.6,6.3-12.2,7.2-19.5,7c-3.5-0.1-7.4-0.4-10.3-2.1
	c-1.1-0.6-2.1-1.5-2.9-2.5c-2-2.7-2.2-6.2-2.1-9.5c0.1-3.4,0.4-7,0.5-10.4c0.1-4.3-0.3-8.5-2.1-12.3c-1-2.1,3.3-9.7,4.1-11.9
	c1.5-3.5-3-1.3-1.6-4.7c1.6-3.8,3.2-7.7,6.3-10.4c4.8-4.2,11.7-4.4,18-4.4c1,0,2.4,0.5,2.2,1.5c4.9,1.3,7.5,9.2,8.4,14.1
	C483.1,310.7,483.4,323.8,481.4,336.7z"/>
<linearGradient id="SVGID_18_" gradientUnits="userSpaceOnUse" x1="411.3691" y1="-81.0865" x2="465.0342" y2="-71.8299" gradientTransform="matrix(1 0 0 -1 -3.2 254.27)">
	<stop  offset="1.000000e-02" style="stop-color:#000000"/>
	<stop  offset="0.97" style="stop-color:#3F3D56;stop-opacity:0"/>
</linearGradient>
<path class="st22" d="M455,348.3c-1.8,0.3-3.6,0.4-5.4,0.3c-1.1-0.6-2.1-1.5-2.9-2.5c-2-2.7-2.2-6.2-2.1-9.5c0.1-3.4,0.4-7,0.5-10.4
	l9.9-19.9C455,306.3,458.5,347.5,455,348.3z"/>
<path class="st21" d="M467,350.4l7.3-2.1c0,0,2,2.1,0,10.4c-2,8.3-2.7,65.9-2.7,65.9h-6.6l-5.8-53.5c0,0-12.7,45.4-13.5,53.5H438
	c0,0,2.7-72.5,8.7-78.4C446.7,346.1,450.2,347.8,467,350.4z"/>
<path class="st2" d="M443.2,303.3c0,0-2.8,20.6-6.3,20.2c-3.6-0.3-9.7-12.8-9.7-12.8c-2.9,1.1-4.7,3.9-4.5,6.9
	c0,5.5,5.5,10.7,5.5,10.7s15.8,11.3,20.3,2.3S456,300,456,300s6.7-16.8-0.1-15.6C446.7,285.8,443.2,303.3,443.2,303.3z"/>
<linearGradient id="SVGID_19_" gradientUnits="userSpaceOnUse" x1="424.9417" y1="-51.9983" x2="430.8138" y2="-51.9983" gradientTransform="matrix(1 0 0 -1 -3.2 254.27)">
	<stop  offset="0" style="stop-color:#ECC4D7"/>
	<stop  offset="0.16" style="stop-color:#EDCBD5"/>
	<stop  offset="0.42" style="stop-color:#EFD4D1"/>
	<stop  offset="0.7" style="stop-color:#F2EAC9"/>
</linearGradient>
<path class="st23" d="M422.7,309.1c-1.2-3-1.3-6.2-0.3-9.3c0.4,0.3,0.8,0.7,0.9,1.2l2,4.5c0.7-0.6,1.2-1.2,1.7-2
	c0.5,0.3,0.7,0.9,0.6,1.4c-0.1,0.5-0.3,1.1-0.5,1.6c-0.3,1.4-0.4,2.9-0.1,4.3c-0.5,0.4-1,0.9-1.6,1.2c-0.5,0.3-1.1,0.9-1.5,0.5
	c-0.4-0.4-0.4-1.4-0.6-1.9C423.2,310.3,422.9,309.6,422.7,309.1z"/>
<path class="st21" d="M445.7,424.5l-1,7.7h-17.3c0,0,1.2-5.4,10.6-7.7H445.7z"/>
<path class="st21" d="M472,424.5l0.6,7.7h-19c0,0,1.2-5.4,10.6-7.7H472z"/>
</svg>
